<svg viewBox="0 0 680 430" xmlns="http://www.w3.org/2000/svg" role="img" font-family="system-ui,-apple-system,'Segoe UI',Helvetica,Arial,sans-serif">
  <title>ora brand sheet</title>
  <rect width="680" height="430" fill="#FDF9F1"/>
  <text x="24" y="36" font-size="18" font-weight="700" fill="#3A2A20">ora · brand sheet</text>
  <text x="24" y="74" font-size="12" font-weight="600" letter-spacing="1" fill="#8A6B55">MAU - MOC (goc re, O·R)</text>
  <rect x="24" y="84" width="92" height="56" rx="10" fill="#2E5E40"/><text x="70" y="158" text-anchor="middle" font-family="ui-monospace,Menlo,monospace" font-size="10" fill="#8A6B55">#2E5E40</text>
  <rect x="126" y="84" width="92" height="56" rx="10" fill="#4C8A57"/><text x="172" y="158" text-anchor="middle" font-family="ui-monospace,Menlo,monospace" font-size="10" fill="#8A6B55">#4C8A57</text>
  <rect x="228" y="84" width="92" height="56" rx="10" fill="#7E9243"/><text x="274" y="158" text-anchor="middle" font-family="ui-monospace,Menlo,monospace" font-size="10" fill="#8A6B55">#7E9243</text>
  <rect x="330" y="84" width="92" height="56" rx="10" fill="#9BA832"/><text x="376" y="158" text-anchor="middle" font-family="ui-monospace,Menlo,monospace" font-size="10" fill="#8A6B55">#9BA832</text>
  <text x="24" y="194" font-size="12" font-weight="600" letter-spacing="1" fill="#8A6B55">MAU - HOA (khat vong, A) + NEN</text>
  <rect x="24" y="204" width="92" height="56" rx="10" fill="#D14338"/><text x="70" y="278" text-anchor="middle" font-family="ui-monospace,Menlo,monospace" font-size="10" fill="#8A6B55">#D14338</text>
  <rect x="126" y="204" width="92" height="56" rx="10" fill="#F49B33"/><text x="172" y="278" text-anchor="middle" font-family="ui-monospace,Menlo,monospace" font-size="10" fill="#8A6B55">#F49B33</text>
  <rect x="228" y="204" width="92" height="56" rx="10" fill="#FAD06B"/><text x="274" y="278" text-anchor="middle" font-family="ui-monospace,Menlo,monospace" font-size="10" fill="#8A6B55">#FAD06B</text>
  <rect x="330" y="204" width="92" height="56" rx="10" fill="#20140E"/><text x="376" y="278" text-anchor="middle" font-family="ui-monospace,Menlo,monospace" font-size="10" fill="#8A6B55">#20140E nen toi</text>
  <rect x="432" y="204" width="92" height="56" rx="10" fill="#F7EFE2" stroke="#E3C9A4"/><text x="478" y="278" text-anchor="middle" font-family="ui-monospace,Menlo,monospace" font-size="10" fill="#8A6B55">#F7EFE2 nen sang</text>
  <rect x="534" y="204" width="92" height="56" rx="10" fill="#F5EFDF" stroke="#E3C9A4"/><text x="580" y="278" text-anchor="middle" font-family="ui-monospace,Menlo,monospace" font-size="10" fill="#8A6B55">#F5EFDF chu/kem</text>
  <rect x="446" y="64" width="210" height="86" rx="14" fill="#20140E"/>
  <text x="468" y="106" font-size="34" font-weight="600" fill="#F5EFDF">ora</text>
  <text x="468" y="130" font-family="ui-monospace,Menlo,monospace" font-size="11" fill="#9BA832">$ www.ora.com.vn</text>
  <text x="24" y="318" font-size="12" font-weight="600" letter-spacing="1" fill="#8A6B55">TYPOGRAPHY</text>
  <text x="24" y="344" font-size="13" fill="#3A2A20">Wordmark: sans-serif 600, luon viet thuong "ora", tracking -1</text>
  <text x="24" y="364" font-size="13" fill="#3A2A20">Gia tri/labels: VIET HOA gian rong · Ky thuat/URL: monospace</text>
  <text x="24" y="400" font-size="12" font-weight="600" letter-spacing="1" fill="#8A6B55">QUY TAC</text>
  <text x="24" y="422" font-size="12" fill="#3A2A20">1. Khong nen den thuan / xanh duong  2. Khong bo tron mark  3. Xanh luon dung duoi/truoc cam (Moc sinh Hoa)</text>
</svg>
