<svg viewBox="0 0 1496 500" xmlns="http://www.w3.org/2000/svg" role="img">
  <title>ora social cover</title>
  <g transform="scale(2.2)">
    <rect x="0" y="0" width="680" height="227" fill="#20140E"/>
    <path d="M520,227 L600,80 L680,227 Z" fill="#2A1B12"/>
    <path d="M600,227 L660,120 L680,160 L680,227 Z" fill="#241710"/>
    <g transform="translate(150,128) scale(1.1)">
      <g transform="translate(-44,22) scale(0.78)"><path d="M0,0 L10,-34 L28,-44 Z" fill="#2E5E40"/><path d="M28,-44 L24,-8 L0,0 Z" fill="#4C8A57"/></g>
      <g transform="translate(-14,10) scale(1.02)"><path d="M0,0 L10,-34 L28,-44 Z" fill="#7E9243"/><path d="M28,-44 L24,-8 L0,0 Z" fill="#9BA832"/></g>
      <g transform="translate(22,-6) scale(1.3)"><path d="M0,0 L10,-34 L28,-44 Z" fill="#D14338"/><path d="M28,-44 L24,-8 L0,0 Z" fill="#F49B33"/></g>
      <path d="M62,-72 L70,-64 L62,-56 L54,-64 Z" fill="#FAD06B"/>
    </g>
    <text x="300" y="112" font-family="system-ui,-apple-system,'Segoe UI',Helvetica,Arial,sans-serif" font-size="58" font-weight="600" letter-spacing="-1" fill="#F5EFDF">ora</text>
    <text x="303" y="142" font-family="system-ui,-apple-system,'Segoe UI',Helvetica,Arial,sans-serif" font-size="13" font-weight="500" letter-spacing="2.4" fill="#E08B5A">OWNERSHIP · RESPONSIBILITY · AMBITION</text>
    <text x="303" y="168" font-family="ui-monospace,SFMono-Regular,Menlo,Consolas,monospace" font-size="12" fill="#9BA832">www.ora.com.vn</text>
    <path d="M560,50 L566,56 L560,62 L554,56 Z" fill="#F49B33"/>
    <path d="M620,36 L624,40 L620,44 L616,40 Z" fill="#E08B5A"/>
    <path d="M480,30 L483,33 L480,36 L477,33 Z" fill="#9BA832"/>
  </g>
</svg>
