<svg viewBox="0 0 760 240" xmlns="http://www.w3.org/2000/svg" role="img">
  <title>ora lockup</title>
  <rect width="760" height="240" rx="36" fill="#20140E"/>
  <g transform="translate(150,142) scale(1.1)">
    <g transform="translate(-44,22) scale(0.78)"><path d="M0,0 L10,-34 L28,-44 Z" fill="#2E5E40"/><path d="M28,-44 L24,-8 L0,0 Z" fill="#4C8A57"/></g>
    <g transform="translate(-14,10) scale(1.02)"><path d="M0,0 L10,-34 L28,-44 Z" fill="#7E9243"/><path d="M28,-44 L24,-8 L0,0 Z" fill="#9BA832"/></g>
    <g transform="translate(22,-6) scale(1.3)"><path d="M0,0 L10,-34 L28,-44 Z" fill="#D14338"/><path d="M28,-44 L24,-8 L0,0 Z" fill="#F49B33"/></g>
    <path d="M62,-72 L70,-64 L62,-56 L54,-64 Z" fill="#FAD06B"/>
  </g>
  <text x="276" y="138" font-family="system-ui,-apple-system,'Segoe UI',Helvetica,Arial,sans-serif" font-size="96" font-weight="600" letter-spacing="-1" fill="#F5EFDF">ora</text>
  <text x="280" y="180" font-family="system-ui,-apple-system,'Segoe UI',Helvetica,Arial,sans-serif" font-size="17" font-weight="500" letter-spacing="3" fill="#E08B5A">OWNERSHIP · RESPONSIBILITY · AMBITION</text>
</svg>
